<svg width="748" height="654" viewBox="0 0 748 654" fill="none" xmlns="http://www.w3.org/2000/svg">
<circle cx="544.964" cy="112" r="72" fill="black"/>
<path d="M250.595 402.334C232.263 385.534 231.638 356.839 249.221 339.256V339.256C266.803 321.673 295.497 322.299 312.298 340.63L480.088 523.716C491.967 536.679 491.531 556.698 479.098 569.131V569.131C466.666 581.564 446.647 582 433.684 570.121L250.595 402.334Z" fill="black"/>
<path d="M250.595 402.334C232.263 385.534 231.638 356.839 249.22 339.256V339.256C266.803 321.673 295.497 322.299 312.298 340.63L480.088 523.716C491.967 536.679 491.531 556.698 479.098 569.131V569.131C466.666 581.564 446.647 582 433.684 570.121L250.595 402.334Z" fill="black"/>
<path d="M435.937 507.709C456.344 501.322 477.962 513.212 483.496 533.866V533.866C489.03 554.52 476.254 575.626 455.388 580.299L233.472 629.996C218.735 633.296 204.019 624.388 200.11 609.801V609.801C196.202 595.215 204.492 580.142 218.904 575.631L435.937 507.709Z" fill="black"/>
<path fill-rule="evenodd" clip-rule="evenodd" d="M413.559 262.642C431.161 267.709 450.962 263.357 464.907 249.412C474.536 239.783 479.591 227.365 480.13 214.805C482.026 218.25 483.436 222.043 484.249 226.116L512.148 365.778C515.328 381.701 505.568 397.35 489.868 401.498C474.168 405.646 457.952 396.86 452.853 381.443L413.559 262.642Z" fill="black"/>
<path fill-rule="evenodd" clip-rule="evenodd" d="M576.282 313.107L480.141 334.408C460.954 338.659 449.167 358.031 454.21 377.025C459.254 396.019 479.098 406.993 497.867 401.166L591.91 371.969L576.282 313.107Z" fill="black"/>
<path d="M398.447 239.663C413.889 256.512 440.262 257.087 456.422 240.926V240.926C472.583 224.766 472.008 198.393 455.159 182.952L286.885 28.736C274.971 17.8174 256.571 18.2183 245.144 29.6453V29.6453C233.717 41.0723 233.316 59.4715 244.234 71.3854L398.447 239.663Z" fill="black"/>
<path fill-rule="evenodd" clip-rule="evenodd" d="M378.927 195.311L368.421 206.898L398.447 239.663C413.888 256.512 440.262 257.087 456.422 240.926C471.691 225.657 472.02 201.271 457.798 185.603C433.273 169.148 399.547 172.566 378.927 195.311ZM389.6 247.77L360.327 215.827L245.653 342.314C231.267 360.045 233.373 386.551 250.595 402.334L287.952 436.569L464.106 281.838C484.289 264.11 489.807 236.161 480.178 212.882C480.094 226.09 475.027 239.292 464.907 249.412C443.915 270.404 409.658 269.657 389.6 247.77ZM278.884 444.535L242.488 411.181C229.248 399.048 223.253 382.048 224.619 365.515L7.61168 604.879C-3.05469 616.645 -2.43813 634.757 9.0036 645.77C20.0048 656.358 37.2844 656.752 48.7563 646.675L278.884 444.535Z" fill="black"/>
<path d="M301.598 69.3145C307.467 50.5589 296.539 30.6895 277.556 25.603V25.603C258.573 20.5166 239.175 32.2596 234.88 51.437L189.203 255.401C186.17 268.945 194.358 282.471 207.764 286.063V286.063C221.171 289.655 235.024 282.036 239.17 268.79L301.598 69.3145Z" fill="black"/>
<path d="M613.537 387.693C610.939 388.383 608.274 386.836 607.584 384.238V384.238C606.894 381.64 608.441 378.974 611.039 378.284L740.543 343.899C743.141 343.209 745.806 344.756 746.496 347.354V347.354C747.186 349.952 745.639 352.617 743.041 353.307L613.537 387.693Z" fill="black"/>
<path fill-rule="evenodd" clip-rule="evenodd" d="M609.645 374.151C607.2 374.8 604.691 373.344 604.042 370.899L583.176 292.311C582.526 289.866 583.982 287.358 586.428 286.708L716.485 252.176C718.93 251.526 721.439 252.982 722.088 255.428L742.954 334.015C743.604 336.461 742.148 338.969 739.703 339.618L609.645 374.151ZM633.42 357.174C631.739 357.621 630.014 356.62 629.568 354.939L613.256 293.507C612.81 291.826 613.811 290.102 615.492 289.655C617.173 289.209 618.898 290.21 619.344 291.891L635.655 353.322C636.102 355.003 635.101 356.728 633.42 357.174ZM657.001 347.655C657.447 349.336 659.172 350.337 660.853 349.89C662.534 349.444 663.535 347.719 663.089 346.038L646.777 284.607C646.331 282.926 644.606 281.925 642.925 282.371C641.244 282.817 640.243 284.542 640.69 286.223L657.001 347.655ZM688.286 342.606C686.605 343.053 684.88 342.052 684.434 340.371L668.123 278.939C667.676 277.258 668.677 275.534 670.358 275.087C672.04 274.641 673.764 275.642 674.211 277.323L690.522 338.754C690.968 340.435 689.967 342.16 688.286 342.606ZM711.867 333.087C712.313 334.768 714.038 335.769 715.719 335.322C717.4 334.876 718.401 333.151 717.955 331.47L701.644 270.039C701.197 268.358 699.473 267.357 697.792 267.803C696.111 268.25 695.11 269.974 695.556 271.655L711.867 333.087Z" fill="black"/>
</svg>
